HIERARCHY
ROOT Hips
{
    OFFSET   0.000000   0.000000   0.000000
    CHANNELS 6 Xposition Yposition Zposition Zrotation Xrotation Yrotation
    JOINT Chest
    {
        OFFSET   0.000000   8.007230   0.000000
        CHANNELS 3 Zrotation Xrotation Yrotation
        JOINT Chest2
        {
            OFFSET   0.000000  22.077100   0.000000
            CHANNELS 3 Zrotation Xrotation Yrotation
            JOINT Neck
            {
                OFFSET   0.000000  23.255100   0.000000
                CHANNELS 3 Zrotation Xrotation Yrotation
                JOINT Head
                {
                    OFFSET   0.000000  14.370100   1.956600
                    CHANNELS 3 Zrotation Xrotation Yrotation
                    End Site
                    {
                        OFFSET   0.000000  19.566000   0.000000
                    }
                }
            }
            JOINT LeftCollar
            {
                OFFSET   3.911900  19.017000  -0.467063
                CHANNELS 3 Zrotation Xrotation Yrotation
                JOINT LeftShoulder
                {
                    OFFSET  10.383700   0.000000   0.000000
                    CHANNELS 3 Zrotation Xrotation Yrotation
                    JOINT LeftElbow
                    {
                        OFFSET  26.662100   0.001193   0.000980
                        CHANNELS 3 Zrotation Xrotation Yrotation
                        JOINT LeftWrist
                        {
                            OFFSET  28.869000  -0.000059  -0.000082
                            CHANNELS 3 Zrotation Xrotation Yrotation
                            JOINT LeftFinger0
                            {
                                OFFSET   2.044650  -2.323450   3.252850
                                CHANNELS 3 Zrotation Xrotation Yrotation
                                JOINT LeftFinger01
                                {
                                    OFFSET   3.088130   0.000000   0.000000
                                    CHANNELS 3 Zrotation Xrotation Yrotation
                                    JOINT LeftFinger02
                                    {
                                        OFFSET   2.639460   0.000000   0.000000
                                        CHANNELS 3 Zrotation Xrotation Yrotation
                                        End Site
                                        {
                                            OFFSET   2.582190   0.000000   0.000000
                                        }
                                    }
                                }
                            }
                            JOINT LeftFinger1
                            {
                                OFFSET   8.364480   0.000000   3.252850
                                CHANNELS 3 Zrotation Xrotation Yrotation
                                JOINT LeftFinger11
                                {
                                    OFFSET   4.646930   0.000000   0.000000
                                    CHANNELS 3 Zrotation Xrotation Yrotation
                                    JOINT LeftFinger12
                                    {
                                        OFFSET   2.323470   0.000000   0.000000
                                        CHANNELS 3 Zrotation Xrotation Yrotation
                                        End Site
                                        {
                                            OFFSET   2.273050   0.000000   0.000000
                                        }
                                    }
                                }
                            }
                            JOINT LeftFinger2
                            {
                                OFFSET   8.364490   0.000016   1.078090
                                CHANNELS 3 Zrotation Xrotation Yrotation
                                JOINT LeftFinger21
                                {
                                    OFFSET   5.111610   0.000000   0.000000
                                    CHANNELS 3 Zrotation Xrotation Yrotation
                                    JOINT LeftFinger22
                                    {
                                        OFFSET   2.788150   0.000016   0.000000
                                        CHANNELS 3 Zrotation Xrotation Yrotation
                                        End Site
                                        {
                                            OFFSET   2.727660   0.000000   0.000000
                                        }
                                    }
                                }
                            }
                            JOINT LeftFinger3
                            {
                                OFFSET   7.899780   0.000015  -1.078090
                                CHANNELS 3 Zrotation Xrotation Yrotation
                                JOINT LeftFinger31
                                {
                                    OFFSET   4.646930   0.000000   0.000000
                                    CHANNELS 3 Zrotation Xrotation Yrotation
                                    JOINT LeftFinger32
                                    {
                                        OFFSET   2.323470   0.000000   0.000000
                                        CHANNELS 3 Zrotation Xrotation Yrotation
                                        End Site
                                        {
                                            OFFSET   2.273050   0.000000   0.000000
                                        }
                                    }
                                }
                            }
                            JOINT LeftFinger4
                            {
                                OFFSET   7.435090   0.000000  -3.252850
                                CHANNELS 3 Zrotation Xrotation Yrotation
                                JOINT LeftFinger41
                                {
                                    OFFSET   3.717550   0.000000   0.000000
                                    CHANNELS 3 Zrotation Xrotation Yrotation
                                    JOINT LeftFinger42
                                    {
                                        OFFSET   1.858770   0.000000   0.000000
                                        CHANNELS 3 Zrotation Xrotation Yrotation
                                        End Site
                                        {
                                            OFFSET   1.818440   0.000000   0.000000
                                        }
                                    }
                                }
                            }
                        }
                    }
                }
            }
            JOINT RightCollar
            {
                OFFSET  -3.911910  19.017000  -0.467062
                CHANNELS 3 Zrotation Xrotation Yrotation
                JOINT RightShoulder
                {
                    OFFSET -10.383700   0.000014   0.000000
                    CHANNELS 3 Zrotation Xrotation Yrotation
                    JOINT RightElbow
                    {
                        OFFSET -26.662100   0.001225   0.001091
                        CHANNELS 3 Zrotation Xrotation Yrotation
                        JOINT RightWrist
                        {
                            OFFSET -28.869000  -0.000020  -0.000085
                            CHANNELS 3 Zrotation Xrotation Yrotation
                            JOINT RightFinger0
                            {
                                OFFSET  -2.044650  -2.323490   3.252850
                                CHANNELS 3 Zrotation Xrotation Yrotation
                                JOINT RightFinger01
                                {
                                    OFFSET  -3.088130   0.000000   0.000000
                                    CHANNELS 3 Zrotation Xrotation Yrotation
                                    JOINT RightFinger02
                                    {
                                        OFFSET  -2.639460   0.000000   0.000000
                                        CHANNELS 3 Zrotation Xrotation Yrotation
                                        End Site
                                        {
                                            OFFSET  -2.582190   0.000000   0.000000
                                        }
                                    }
                                }
                            }
                            JOINT RightFinger1
                            {
                                OFFSET  -8.364480   0.000000   3.252850
                                CHANNELS 3 Zrotation Xrotation Yrotation
                                JOINT RightFinger11
                                {
                                    OFFSET  -4.646930   0.000000   0.000000
                                    CHANNELS 3 Zrotation Xrotation Yrotation
                                    JOINT RightFinger12
                                    {
                                        OFFSET  -2.323470   0.000000   0.000000
                                        CHANNELS 3 Zrotation Xrotation Yrotation
                                        End Site
                                        {
                                            OFFSET  -2.273050   0.000000   0.000000
                                        }
                                    }
                                }
                            }
                            JOINT RightFinger2
                            {
                                OFFSET  -8.364480   0.000000   1.078090
                                CHANNELS 3 Zrotation Xrotation Yrotation
                                JOINT RightFinger21
                                {
                                    OFFSET  -5.111620   0.000000   0.000000
                                    CHANNELS 3 Zrotation Xrotation Yrotation
                                    JOINT RightFinger22
                                    {
                                        OFFSET  -2.788160   0.000000   0.000000
                                        CHANNELS 3 Zrotation Xrotation Yrotation
                                        End Site
                                        {
                                            OFFSET  -2.727660   0.000000   0.000000
                                        }
                                    }
                                }
                            }
                            JOINT RightFinger3
                            {
                                OFFSET  -7.899780   0.000000  -1.078090
                                CHANNELS 3 Zrotation Xrotation Yrotation
                                JOINT RightFinger31
                                {
                                    OFFSET  -4.646930   0.000000   0.000000
                                    CHANNELS 3 Zrotation Xrotation Yrotation
                                    JOINT RightFinger32
                                    {
                                        OFFSET  -2.323470   0.000000   0.000000
                                        CHANNELS 3 Zrotation Xrotation Yrotation
                                        End Site
                                        {
                                            OFFSET  -2.273050   0.000000   0.000000
                                        }
                                    }
                                }
                            }
                            JOINT RightFinger4
                            {
                                OFFSET  -7.435090   0.000000  -3.252850
                                CHANNELS 3 Zrotation Xrotation Yrotation
                                JOINT RightFinger41
                                {
                                    OFFSET  -3.717550   0.000000   0.000000
                                    CHANNELS 3 Zrotation Xrotation Yrotation
                                    JOINT RightFinger42
                                    {
                                        OFFSET  -1.858760   0.000000   0.000000
                                        CHANNELS 3 Zrotation Xrotation Yrotation
                                        End Site
                                        {
                                            OFFSET  -1.818440   0.000000   0.000000
                                        }
                                    }
                                }
                            }
                        }
                    }
                }
            }
        }
    }
    JOINT LeftHip
    {
        OFFSET   9.783030   0.000000   0.000000
        CHANNELS 3 Zrotation Xrotation Yrotation
        JOINT LeftKnee
        {
            OFFSET   0.000063 -41.789100   0.000608
            CHANNELS 3 Zrotation Xrotation Yrotation
            JOINT LeftAnkle
            {
                OFFSET   0.000048 -41.133200  -0.000184
                CHANNELS 3 Zrotation Xrotation Yrotation
                JOINT LeftToe
                {
                    OFFSET   0.000000  -6.358960  14.674500
                    CHANNELS 3 Zrotation Xrotation Yrotation
                    End Site
                    {
                        OFFSET   0.000000   0.000000   3.913200
                    }
                }
            }
        }
    }
    JOINT RightHip
    {
        OFFSET  -9.783030   0.000000   0.000000
        CHANNELS 3 Zrotation Xrotation Yrotation
        JOINT RightKnee
        {
            OFFSET   0.000071 -41.789100   0.001239
            CHANNELS 3 Zrotation Xrotation Yrotation
            JOINT RightAnkle
            {
                OFFSET   0.000037 -41.133200  -0.000166
                CHANNELS 3 Zrotation Xrotation Yrotation
                JOINT RightToe
                {
                    OFFSET   0.000000  -6.358960  14.674500
                    CHANNELS 3 Zrotation Xrotation Yrotation
                    End Site
                    {
                        OFFSET   0.000000   0.000000   3.913200
                    }
                }
            }
        }
    }
}
MOTION
Frames: 4
Frame Time:   0.016667
 -1.113210  89.525400  -0.219438  -3.311230  -9.474180  -4.426830   0.804312   5.500570   0.686318   1.552850  11.010000   1.303670   1.202630  -1.287370   0.030713   1.978610  -2.606960   4.222830  -7.241340  -1.648490   0.819221 -72.720200  18.109500  -1.569700  -1.606220  -3.127380 -18.283700  18.434400 -12.835100  11.628400  40.180500  36.935400 -62.780600 -34.866200   0.003833   0.002748 -12.427500   0.001521  -0.000944 -30.737200   5.818650  -9.665650 -25.558500  -0.001346   0.001543 -17.890900  -0.012867   0.000775 -28.290900  -1.616680   3.001190 -34.408700   0.001479   0.005396 -22.916200  -0.000666   0.003804 -28.817200  -1.645870   2.985320 -43.290400  -0.006658  -0.000491 -28.831400  -0.001833  -0.001254 -41.115400  -2.245130   2.565420 -61.748800  -0.009725  -0.003267 -41.124700   0.000344  -0.003699  12.028200   0.307957   6.960280  67.063300  12.317600  -5.288730  -0.997735  -3.210300  13.126400 -15.940800  -3.399620  -3.113530 -32.031200  28.052300  59.144900  40.513000   0.008149  -0.010655  16.581700   0.001034  -0.006558  35.107400   8.331820  11.646900  29.420700  -0.005690  -0.003992  20.594500  -0.003538  -0.006589  28.644300  -2.524920  -4.611020  40.128500   0.000214   0.000154  26.725600   0.000171  -0.010204  32.741300  -2.848180  -4.418970  49.276800  -0.000956  -0.000403  32.818400  -0.000687  -0.002190  49.953300  -4.504530  -3.776780  75.152900   0.000387   0.007719  50.051800  -0.002210   0.000836   3.585750  12.101700   4.254610   1.474210   0.002252   9.349330  -3.139690  -2.303330   3.526120   0.000000   0.000000   0.000000   4.498690  10.773700  -3.399680  -0.549506   1.764160  -8.963660  -1.414180  -4.164160   0.938755   0.000000   0.000000   0.000000
 -1.123860  89.524600  -0.196533  -3.306200  -9.454480  -4.405490   0.804366   5.474910   0.686410   1.553200  10.958600   1.303830   1.220570  -1.299800   0.030680   2.008130  -2.632070   4.203120  -7.253270  -1.648160   0.838115 -72.745800  18.093800  -1.549410  -1.593970  -3.141530 -18.234200  18.442400 -12.841200  11.631100  40.145100  36.874100 -62.717800 -34.862600   0.003838   0.002739 -12.427500   0.001499  -0.000927 -30.742700   5.818640  -9.666570 -25.558500  -0.001339   0.001556 -17.890900  -0.012867   0.000785 -28.290900  -1.616680   3.001190 -34.430800   0.001503   0.005429 -22.931000  -0.000661   0.003831 -28.828100  -1.645870   2.985320 -43.306600  -0.006703  -0.000485 -28.842100  -0.001822  -0.001248 -41.136200  -2.245130   2.565420 -61.779700  -0.009747  -0.003236 -41.145300   0.000329  -0.003679  12.031000   0.321428   6.970860  67.051500  12.281100  -5.283450  -0.987020  -3.223510  13.091300 -15.942300  -3.401340  -3.124620 -31.974000  27.998400  59.164200  40.565800   0.008146  -0.010645  16.626100   0.001045  -0.006545  35.169400   8.323410  11.609600  29.468500  -0.005685  -0.003964  20.628000  -0.003541  -0.006578  28.644400  -2.559210  -4.673220  40.210800   0.000248   0.000183  26.780400   0.000202  -0.010189  32.783000  -2.890140  -4.476420  49.344000  -0.000898  -0.000371  32.863100  -0.000640  -0.002170  49.974500  -4.512880  -3.780840  75.185300   0.000400   0.007730  50.073400  -0.002192   0.000792   3.589580  12.092400   4.263630   1.483350   0.014288   9.333160  -3.147410  -2.321360   3.514980   0.000000   0.000000  -0.000000   4.504830  10.788700  -3.406480  -0.542629   1.739820  -8.982650  -1.419790  -4.173960   0.938773   0.000000   0.000000   0.000000
 -1.142070  89.523300  -0.158347  -3.298830  -9.434950  -4.369800   0.804507   5.436220   0.687217   1.553710  10.881300   1.306180   1.248940  -1.322400   0.030647   2.054850  -2.677740   4.165380  -7.273090  -1.647830   0.864786 -72.775500  18.075600  -1.516950  -1.571750  -3.170210 -18.166200  18.457000 -12.871300  11.641100  40.109900  36.812800 -62.655300 -34.855100   0.003860   0.002730 -12.427500   0.001440  -0.000888 -30.748100   5.818560  -9.671190 -25.558400  -0.001320   0.001590 -17.890800  -0.012867   0.000811 -28.290900  -1.616680   3.001190 -34.453000   0.001563   0.005513 -22.945700  -0.000646   0.003898 -28.843600  -1.645870   2.985320 -43.329800  -0.006813  -0.000472 -28.857500  -0.001795  -0.001234 -41.164700  -2.245130   2.565420 -61.822400  -0.009800  -0.003158 -41.173700   0.000290  -0.003630  12.040200   0.341360   6.989040  67.032600  12.244600  -5.275000  -0.961432  -3.257680  13.032800 -15.944700  -3.409330  -3.147140 -31.881900  27.913200  59.207800  40.647400   0.008134  -0.010615  16.693500   0.001065  -0.006532  35.258000   8.310610  11.555300  29.536600  -0.005674  -0.003897  20.675700  -0.003545  -0.006556  28.645100  -2.613220  -4.771090  40.365600   0.000326   0.000251  26.883500   0.000271  -0.010153  32.861900  -2.957320  -4.566090  49.469700  -0.000768  -0.000288  32.946900  -0.000540  -0.002132  50.013000  -4.528060  -3.788230  75.244300   0.000431   0.007755  50.112700  -0.002152   0.000690   3.597500  12.082800   4.276460   1.497390   0.040924   9.307970  -3.159600  -2.355140   3.495410   0.000000   0.000000  -0.000000   4.515350  10.817200  -3.418200  -0.531307   1.703820  -9.013980  -1.429040  -4.191200   0.938834   0.000000   0.000000  -0.000000
 -1.157110  89.522600  -0.127712  -3.297770  -9.435600  -4.341800   0.805690   5.413970   0.695221   1.555490  10.836900   1.322740   1.268960  -1.344810   0.030658   2.087900  -2.723190   4.123790  -7.289550  -1.647900   0.877002 -72.783100  18.072700  -1.493460  -1.550830  -3.208270 -18.141900  18.466000 -12.946500  11.662900  40.128200  36.833300 -62.684700 -34.845500   0.003906   0.002766 -12.423500   0.001346  -0.000836 -30.746400   5.823440  -9.682140 -25.558300  -0.001292   0.001643 -17.890800  -0.012861   0.000853 -28.291200  -1.613170   2.994700 -34.452000   0.001652   0.005642 -22.945500  -0.000624   0.004001 -28.850400  -1.642530   2.978720 -43.339700  -0.006979  -0.000453 -28.864200  -0.001753  -0.001212 -41.173500  -2.240480   2.559660 -61.835300  -0.009878  -0.003039 -41.182300   0.000230  -0.003555  12.058100   0.351298   7.005120  67.015200  12.245200  -5.266870  -0.923297  -3.312160  12.987300 -15.870100  -3.428520  -3.176360 -31.814700  27.850500  59.272300  40.709600   0.008106  -0.010566  16.740800   0.001088  -0.006558  35.302300   8.301510  11.524600  29.570300  -0.005662  -0.003800  20.699200  -0.003547  -0.006530  28.646800  -2.655920  -4.848530  40.538400   0.000439   0.000355  26.998600   0.000367  -0.010100  32.949900  -3.010450  -4.637040  49.608000  -0.000583  -0.000147  33.039000  -0.000408  -0.002096  50.053100  -4.543840  -3.795970  75.305700   0.000474   0.007791  50.153600  -0.002092   0.000539   3.607440  12.082300   4.281460   1.507870   0.087284   9.293200  -3.169600  -2.400100   3.476910  -0.000000   0.000000  -0.000000   4.522920  10.847900  -3.428670  -0.520035   1.684650  -9.037700  -1.436100  -4.206430   0.941026   0.000000   0.000000  -0.000000
